<?xml version="1.0" encoding="utf-8"?>
<!-- Generator: Adobe Illustrator 21.0.2, SVG Export Plug-In . SVG Version: 6.00 Build 0)  -->
<svg version="1.1" id="Layer_1" xmlns="http://www.w3.org/2000/svg" xmlns:xlink="http://www.w3.org/1999/xlink" x="0px" y="0px"
	 viewBox="0 0 679 295" style="enable-background:new 0 0 679 295;" xml:space="preserve">
<style type="text/css">
	.st0{fill:#333333;}
	.st1{fill:#6FCB9F;}
	.st2{fill:#FFE28A;}
</style>
<g>
	<g>
		<path class="st0" d="M451.1,278.3c1,0,6.7,0,6.7,0c16.9-37.5,33.6-75.2,50.5-112.7c10.4-23,20.7-45.9,31.7-68.6
			c5.6-11.6,11.4-23.1,18.7-33.5c2.1-3,4.6-6.1,7.9-7c4.4-1.3,9,1.6,13.6,1.3c5.1-0.2,9.7-4.6,10.6-10c0.9-5.4-2.1-11.2-6.8-13.2
			c-7.4-3.2-15.5,2.7-20.5,9.3s-9,14.8-16.2,18.6c1.5-8.1,4.2-15.9,5.2-24c1.1-8.1,0.3-17-4.5-23.5c-4.1-5.6-11.6-8.3-17.9-5.7
			c-6.9,2.9-7.3,13.3-2.6,18.7c4.1,4.7,11.5,5.4,16.3,1.5c1.5,9.9-0.8,20.4-6.1,28.7c-1.9-8.7-5-18.7-12.9-21.4
			c-8-2.7-17.3,6-15.9,14.9s12.9,13.7,19.6,8.1c1,25.2-11.5,48.5-22.9,70.7c-23.2,44.9-57.2,101.5-77.5,147.9
			C431.2,278.7,447.8,278.3,451.1,278.3z"/>
		<polygon class="st0" points="464.2,278.3 472.7,278.6 553.2,102.2 548.3,95.3 		"/>
		<polygon class="st1" points="481.5,278.7 494.6,278.6 566,121 559.9,113.7 		"/>
		<polygon class="st0" points="503.6,278.3 511,278.2 576.1,134.8 571,129.3 		"/>
		<polygon class="st0" points="523.4,278.2 531.5,278.2 587.2,152.6 582.4,147.5 		"/>
		<polygon class="st2" points="542.9,278.2 554.7,278.2 600.4,173.8 593.4,166.9 		"/>
		<polygon class="st0" points="564.1,278.5 576.3,278.2 613.5,193.3 606.7,187 		"/>
		<polygon class="st0" points="585.3,278.5 596.9,279.3 625.7,215.5 618.2,208.6 		"/>
		<polygon class="st0" points="606.5,278.5 618.7,278.1 638.1,232.7 631.4,226.2 		"/>
		<polygon class="st0" points="628.1,278.4 638.8,278.3 650.3,250.5 643.2,244.7 		"/>
		<polygon class="st0" points="646.6,278.4 657,278.4 671.2,278.1 655,259.6 		"/>
	</g>
	<g>
		<path class="st0" d="M232.7,53.8c0,12.4-7.7,21.6-20.2,27.4c-11.5,5.5-28,8.5-48.7,8.5c-5.3,0-11.1-0.3-17.1-0.7l-42.4,160.1
			c-1.6,5.5-2.3,9.9-2.3,13.6c0,10.2,6.7,13.5,24.1,14.4l-1.1,5.8c-12.2-0.6-33-0.9-54-0.9c-20.1,0-40.1,0.3-51.2,0.9l1.1-5.8
			c24.5-0.9,31.2-6.8,37-28l43.8-164.3c-12.4-1.1-24.5-2.1-35-2.1c-13.2,0-26,1.3-32.9,5c10,2.8,17.7,11.8,17.7,23.6
			c0,13.4-9.3,24.3-22.8,24.3S7.8,125.2,7.8,112.9c0-9.5,4.1-21.3,18.9-28.6c13.5-6.5,31.3-6.8,39-6.8c35.9,0,70,6.4,100.6,6.4
			c13.8,0,23.1-1.1,30.9-3.8c-5.1-5-10-12.9-10-23c0-13.8,9-23.9,23.1-23.9S232.7,43.1,232.7,53.8z"/>
		<path class="st0" d="M499,76.9l-1.6,5.8c-11.7,3.1-21.8,8.1-34.2,30.8l-92,170.8h-15.1l-17.9-129.9l-78.7,129.9h-14.9l-23.1-183
			c-1.9-14.5-9.7-18.3-15.5-18.6l1.4-5.8c9.7,0.6,25.6,0.9,40.9,0.9c15.7,0,29.2-0.3,37.9-0.9l-1.4,5.8
			c-10.7,0.7-15.5,3.6-15.5,17.3c0,2.1,0,4.5,0.3,7.1l14.1,126.3l53.4-87.7l-6.1-44.5c-1.9-14.4-7.8-18.3-12.5-18.6l1.3-5.8
			c9.1,0.6,23.9,0.9,38,0.9c18.6,0,35.3-0.3,45.4-0.9l-1.4,5.8c-16.5,0.7-23.3,3.4-23.3,16.9c0,2.1,0.1,4.7,0.6,7.5l15.7,121.6
			l59.9-110.1c5-9.4,7.3-16.3,7.3-21.6c0-10.2-9-13.5-24.3-14.4l1.4-5.8c7.7,0.6,27.6,0.9,38.1,0.9C485.8,77.8,492.9,77.5,499,76.9z
			"/>
	</g>
</g>
</svg>
